<svg width="479" height="103" viewBox="0 0 479 103" fill="none" xmlns="http://www.w3.org/2000/svg">
<path d="M465.696 102.744C461.444 102.744 458.231 101.839 456.06 100.029C453.979 98.2194 452.938 95.4144 452.938 91.6141C452.938 87.7233 453.979 84.8731 456.06 83.0634C458.231 81.2537 461.444 80.3489 465.696 80.3489C470.039 80.3489 473.252 81.2537 475.333 83.0634C477.504 84.8731 478.59 87.7233 478.59 91.6141C478.59 99.0337 474.292 102.744 465.696 102.744Z" fill="white"/>
<path d="M359.32 100.979L341.676 29.7231H362.035L372.079 85.5062H374.657L386.601 29.7231H410.082L422.433 85.5062H425.011L434.784 29.7231H454.735L436.955 100.979H410.082L398.952 45.603H396.645L386.058 100.979H359.32Z" fill="white"/>
<path d="M302.655 102.88C295.506 102.88 289.218 101.478 283.789 98.6726C278.36 95.7771 274.107 91.5696 271.031 86.0501C267.954 80.4401 266.416 73.4729 266.416 65.1484C266.416 56.8239 267.954 49.902 271.031 44.3825C274.198 38.863 278.496 34.746 283.925 32.0315C289.444 29.2265 295.687 27.824 302.655 27.824C309.803 27.824 316.091 29.2265 321.521 32.0315C327.04 34.8364 331.338 39.0439 334.414 44.6539C337.581 50.1734 339.165 57.0954 339.165 65.4199C339.165 73.8348 337.536 80.8473 334.279 86.4573C331.112 91.9768 326.769 96.0938 321.249 98.8083C315.82 101.523 309.622 102.88 302.655 102.88ZM303.333 88.3575C306.862 88.3575 309.803 87.5431 312.155 85.9144C314.599 84.2857 316.408 81.8426 317.584 78.5852C318.851 75.2373 319.485 71.2108 319.485 66.5057C319.485 61.5291 318.806 57.3216 317.449 53.8832C316.182 50.3544 314.282 47.6851 311.748 45.8754C309.215 43.9753 306.003 43.0252 302.112 43.0252C298.764 43.0252 295.868 43.8396 293.425 45.4683C290.982 47.0065 289.127 49.4495 287.861 52.7974C286.594 56.0548 285.96 60.0814 285.96 64.877C285.96 72.5681 287.499 78.4043 290.575 82.3855C293.652 86.3668 297.904 88.3575 303.333 88.3575Z" fill="white"/>
<path d="M237.185 100.98V3.93677H256.458V100.98H237.185Z" fill="white"/>
<path d="M192.469 100.98V55.3766H181.204V40.9897L200.205 41.8041V39.2253C197.038 38.5014 194.414 37.3704 192.333 35.8322C190.342 34.2035 188.895 32.2581 187.99 29.996C187.085 27.7339 186.633 25.3361 186.633 22.8025C186.633 18.9118 187.628 15.5639 189.619 12.7589C191.609 9.8634 194.414 7.64655 198.034 6.10833C201.653 4.47963 205.906 3.66528 210.792 3.66528C214.954 3.66528 218.709 4.20818 222.057 5.29398C225.495 6.2893 228.255 7.55607 230.336 9.09429L229.115 26.7386C226.943 25.2004 224.5 23.9336 221.785 22.9383C219.071 21.9429 216.492 21.4453 214.049 21.4453C211.335 21.4453 209.073 22.1692 207.263 23.6169C205.544 25.0646 204.684 27.4172 204.684 30.6746C204.684 32.9367 205.136 34.7464 206.041 36.1036C207.037 37.3704 208.213 38.3205 209.57 38.9539C211.018 39.4968 212.42 39.8587 213.778 40.0396H230.065V55.3766H211.47V100.98H192.469Z" fill="white"/>
<path d="M105.493 100.98V56.191V3.93677H125.173V26.1957C125.173 28.0054 125.082 29.9055 124.901 31.8962C124.811 33.8868 124.585 35.9227 124.223 38.0038C123.951 39.9944 123.635 42.0303 123.273 44.1114C123.001 46.1926 122.685 48.2737 122.323 50.3548H125.309C126.575 45.7401 128.159 41.7589 130.059 38.411C132.05 35.0631 134.583 32.4843 137.66 30.6746C140.736 28.7745 144.627 27.8244 149.332 27.8244C157.656 27.8244 163.9 30.7651 168.062 36.6466C172.224 42.4375 174.305 51.3501 174.305 63.3844V100.98H154.625V66.3704C154.625 58.7698 153.494 53.1598 151.232 49.5405C149.061 45.8306 145.758 43.9757 141.324 43.9757C137.705 43.9757 134.719 45.0615 132.366 47.2331C130.014 49.4047 128.249 52.3454 127.073 56.0553C125.897 59.6746 125.218 63.7464 125.037 68.2705V100.98H105.493Z" fill="white"/>
<path d="M63.978 102.88C59.1823 102.88 54.8391 102.428 50.9483 101.523C47.0575 100.618 43.7096 99.306 40.9047 97.5868C38.0997 95.8676 35.8376 93.8317 34.1184 91.4791C32.3992 89.0361 31.2682 86.3216 30.7253 83.3356L45.655 77.228C46.017 79.2186 47.0123 81.0735 48.641 82.7927C50.2697 84.5119 52.4413 85.9144 55.1558 87.0002C57.9608 87.9955 61.3087 88.4932 65.1995 88.4932C69.3617 88.4932 72.5739 87.905 74.836 86.7287C77.0981 85.462 78.2291 83.6975 78.2291 81.4355C78.2291 79.7163 77.5957 78.359 76.329 77.3637C75.0622 76.3684 73.2073 75.5088 70.7642 74.7849C68.3212 74.0611 65.3804 73.3824 61.9421 72.749C58.5942 71.9347 55.1558 71.0751 51.627 70.1703C48.1886 69.2654 44.9764 67.9987 41.9905 66.37C39.095 64.7413 36.6972 62.6149 34.797 59.9909C32.9873 57.2764 32.0825 53.838 32.0825 49.6757C32.0825 45.3325 33.2588 41.5322 35.6114 38.2748C37.9639 35.0174 41.4023 32.4839 45.9265 30.6742C50.4507 28.7741 55.9702 27.824 62.485 27.824C68.3664 27.824 73.524 28.6383 77.9577 30.267C82.3914 31.8053 86.0107 34.0673 88.8157 37.0533C91.7112 39.9488 93.6566 43.4324 94.6519 47.5041L78.772 52.7974C78.4101 50.6258 77.5052 48.7257 76.0575 47.097C74.7003 45.4683 72.8453 44.2467 70.4928 43.4324C68.2307 42.618 65.5614 42.2109 62.485 42.2109C58.5942 42.2109 55.563 42.8442 53.3914 44.111C51.3103 45.3778 50.2697 47.0517 50.2697 49.1328C50.2697 50.852 50.9483 52.2545 52.3056 53.3403C53.7533 54.4261 55.744 55.331 58.2775 56.0548C60.811 56.6882 63.797 57.3668 67.2354 58.0907C70.8547 58.8146 74.3836 59.6742 77.8219 60.6695C81.2603 61.5743 84.3368 62.7959 87.0513 64.3341C89.8563 65.8723 92.0731 67.9082 93.7018 70.4417C95.3305 72.9753 96.1449 76.2327 96.1449 80.2139C96.1449 84.9191 94.8781 88.9908 92.3445 92.4292C89.811 95.7771 86.1464 98.3559 81.3508 100.166C76.5552 101.975 70.7642 102.88 63.978 102.88Z" fill="white"/>
<path d="M1.90015 100.98V29.7238H21.4446V100.98H1.90015ZM11.8081 19.0015C8.00779 19.0015 5.06708 18.2324 2.98596 16.6942C0.995319 15.0655 0 12.7129 0 9.63649C0 6.46957 0.995319 4.07176 2.98596 2.44305C5.06708 0.814351 8.00779 0 11.8081 0C15.6989 0 18.6396 0.814351 20.6302 2.44305C22.7114 4.07176 23.7519 6.46957 23.7519 9.63649C23.7519 12.6224 22.7114 14.9298 20.6302 16.5585C18.6396 18.1872 15.6989 19.0015 11.8081 19.0015Z" fill="white"/>
</svg>
